<svg width="18" height="18" viewBox="0 0 18 18" fill="none" xmlns="http://www.w3.org/2000/svg">
<g opacity="0.7">
<path d="M11.1372 2.96248V5.81248H10.0122V2.96248C10.0122 2.75998 9.83224 2.66248 9.71224 2.66248C9.67474 2.66248 9.63724 2.66998 9.59974 2.68498L3.65224 4.92748C3.25474 5.07748 2.99974 5.45248 2.99974 5.87998V6.38248C2.31724 6.89248 1.87474 7.70998 1.87474 8.63248V5.87998C1.87474 4.98748 2.42224 4.19248 3.25474 3.87748L9.20974 1.62748C9.37474 1.56748 9.54724 1.53748 9.71224 1.53748C10.4622 1.53748 11.1372 2.14498 11.1372 2.96248Z" fill="#324158"/>
<path d="M16.1249 10.875V11.625C16.1249 11.8275 15.9674 11.9925 15.7574 12H14.6624C14.2649 12 13.9049 11.7075 13.8749 11.3175C13.8524 11.085 13.9424 10.8675 14.0924 10.7175C14.2274 10.575 14.4149 10.5 14.6174 10.5H15.7499C15.9674 10.5075 16.1249 10.6725 16.1249 10.875Z" fill="#324158"/>
<path d="M14.6097 9.7125H15.3747C15.7872 9.7125 16.1247 9.375 16.1247 8.9625V8.6325C16.1247 7.08 14.8572 5.8125 13.3047 5.8125H4.69474C4.05724 5.8125 3.47224 6.0225 2.99974 6.3825C2.31724 6.8925 1.87474 7.71 1.87474 8.6325V13.68C1.87474 15.2325 3.14224 16.5 4.69474 16.5H13.3047C14.8572 16.5 16.1247 15.2325 16.1247 13.68V13.5375C16.1247 13.125 15.7872 12.7875 15.3747 12.7875H14.7222C14.0022 12.7875 13.3122 12.345 13.1247 11.6475C12.9672 11.0775 13.1547 10.53 13.5297 10.1625C13.8072 9.8775 14.1897 9.7125 14.6097 9.7125ZM10.4997 9.5625H5.24974C4.94224 9.5625 4.68724 9.3075 4.68724 9C4.68724 8.6925 4.94224 8.4375 5.24974 8.4375H10.4997C10.8072 8.4375 11.0622 8.6925 11.0622 9C11.0622 9.3075 10.8072 9.5625 10.4997 9.5625Z" fill="#324158"/>
</g>
</svg>
