<svg width="14" height="14" viewBox="0 0 14 14" fill="none" xmlns="http://www.w3.org/2000/svg">
<g clip-path="url(#clip0_565_3413)">
<path d="M13.9732 3.23279L9.06267 8.14329C8.51513 8.68944 7.77335 8.99614 7 8.99614C6.22665 8.99614 5.48487 8.68944 4.93733 8.14329L0.0268333 3.23279C0.0186667 3.32495 0 3.40837 0 3.49995V10.5C0.00092625 11.2732 0.308514 12.0145 0.855295 12.5613C1.40208 13.1081 2.1434 13.4157 2.91667 13.4166H11.0833C11.8566 13.4157 12.5979 13.1081 13.1447 12.5613C13.6915 12.0145 13.9991 11.2732 14 10.5V3.49995C14 3.40837 13.9813 3.32495 13.9732 3.23279Z" fill="#324158"/>
<path d="M8.23743 7.31842L13.5656 1.98967C13.3075 1.56169 12.9434 1.20744 12.5086 0.961095C12.0737 0.714749 11.5827 0.584617 11.0829 0.583252H2.91626C2.41647 0.584617 1.92547 0.714749 1.49061 0.961095C1.05575 1.20744 0.691706 1.56169 0.433594 1.98967L5.76176 7.31842C6.09051 7.64585 6.5356 7.82969 6.99959 7.82969C7.46359 7.82969 7.90868 7.64585 8.23743 7.31842Z" fill="#324158"/>
</g>
<defs>
<clipPath id="clip0_565_3413">
<rect width="14" height="14" fill="white"/>
</clipPath>
</defs>
</svg>
