<svg width="18" height="17" viewBox="0 0 18 17" fill="none" xmlns="http://www.w3.org/2000/svg">
<path fill-rule="evenodd" clip-rule="evenodd" d="M9.23178 0.216701C7.78428 0.168496 6.32184 0.563414 5.05923 1.40621C3.64115 2.35378 2.65012 3.75308 2.19364 5.31737C2.06759 5.30198 1.91663 5.30877 1.73739 5.35946C1.06818 5.54934 0.564861 6.0977 0.338547 6.58065C0.045018 7.21003 -0.0787758 8.04241 0.0518073 8.90173C0.181485 9.75833 0.543361 10.4644 0.995989 10.9028C1.44998 11.3414 1.96258 11.484 2.47178 11.3769C3.22993 11.2151 3.60584 11.094 3.4997 10.3877L2.98574 6.9638C3.08939 5.11074 4.04874 3.36631 5.65331 2.29358C7.80102 0.85898 10.6168 0.950863 12.6654 2.52352C14.0905 3.61616 14.9179 5.25332 15.0134 6.97195L14.654 9.36703C13.8524 11.5607 11.8652 13.0802 9.56559 13.2958H8.03436C7.63921 13.2958 7.32101 13.614 7.32101 14.0087V14.3849C7.32101 14.7798 7.63921 15.098 8.03436 15.098H9.96504C10.36 15.098 10.6768 14.7798 10.6768 14.3849V14.1882C12.4108 13.765 13.9244 12.6993 14.91 11.2131L15.5285 11.3771C16.0318 11.5077 16.5506 11.3414 17.0043 10.903C17.4569 10.4644 17.8186 9.75855 17.9485 8.90195C18.0795 8.04264 17.9521 7.21161 17.662 6.58088C17.3707 5.95014 16.9369 5.54956 16.436 5.40585C16.2262 5.34543 15.9986 5.32325 15.8033 5.31737C15.3905 3.9029 14.5407 2.61653 13.3158 1.67733C12.1116 0.753291 10.6793 0.264227 9.23178 0.216701Z" fill="#324158"/>
<path fill-rule="evenodd" clip-rule="evenodd" d="M11.4915 6.3765C12.0018 6.3765 12.4155 6.79021 12.4166 7.3019C12.4155 7.81224 12.0018 8.22707 11.4915 8.22707C10.9798 8.22707 10.5649 7.81224 10.5649 7.3019C10.5649 6.79043 10.98 6.3765 11.4915 6.3765ZM8.99976 6.3765C9.51123 6.3765 9.92493 6.79021 9.92493 7.3019C9.92493 7.81224 9.51123 8.22707 8.99976 8.22707C8.48784 8.22707 8.07414 7.81224 8.07414 7.3019C8.07414 6.79043 8.48784 6.3765 8.99976 6.3765ZM6.50895 6.3765C7.01929 6.3765 7.43412 6.79021 7.43412 7.3019C7.43412 7.81224 7.01929 8.22707 6.50895 8.22707C5.99748 8.22707 5.58355 7.81224 5.58355 7.3019C5.58355 6.79043 5.99748 6.3765 6.50895 6.3765ZM8.99976 2.40198C6.28625 2.40198 4.09961 4.51665 4.09961 7.3019C4.09961 8.63964 4.60542 9.82191 5.42943 10.6894L5.13703 12.0002C5.04062 12.4315 5.33981 12.7217 5.72749 12.5058L7.00752 11.7917C7.61585 12.0559 8.28868 12.2018 8.99976 12.2018C11.7142 12.2018 13.8995 10.0885 13.8995 7.3019C13.8995 4.51665 11.7142 2.40198 8.99976 2.40198Z" fill="#324158"/>
</svg>
