<svg width="14" height="14" viewBox="0 0 14 14" fill="none" xmlns="http://www.w3.org/2000/svg">
<g opacity="0.7">
<path d="M13.6666 4.28071e-05C13.361 -0.00144611 13.0668 0.11524 12.8453 0.325701C12.7941 0.38057 12.7322 0.424323 12.6633 0.454238C12.5945 0.484152 12.5203 0.49959 12.4453 0.49959C12.3702 0.49959 12.296 0.484152 12.2272 0.454238C12.1584 0.424323 12.0965 0.38057 12.0453 0.325701C11.8228 0.117036 11.5293 0.000900298 11.2243 0.000900298C10.9193 0.000900298 10.6258 0.117036 10.4033 0.325701C10.3521 0.38057 10.2902 0.424323 10.2214 0.454238C10.1526 0.484152 10.0784 0.49959 10.0033 0.49959C9.92829 0.49959 9.85406 0.484152 9.78525 0.454238C9.71644 0.424323 9.65452 0.38057 9.60334 0.325701C9.38093 0.117228 9.08752 0.00121286 8.78269 0.00121286C8.47785 0.00121286 8.18445 0.117228 7.96204 0.325701C7.91079 0.380747 7.84876 0.424647 7.77979 0.454664C7.71083 0.484681 7.63643 0.500173 7.56122 0.500173C7.48601 0.500173 7.41161 0.484681 7.34264 0.454664C7.27368 0.424647 7.21165 0.380747 7.1604 0.325701C6.9373 0.114175 6.64084 -0.0025662 6.33342 4.28071e-05C6.24501 4.28071e-05 6.16023 0.0351609 6.09772 0.0976715C6.03521 0.160182 6.00009 0.244965 6.00009 0.333368V3.99994C6.00009 4.08835 6.03521 4.17313 6.09772 4.23564C6.16023 4.29815 6.24501 4.33327 6.33342 4.33327H9.00002C9.26523 4.33327 9.51957 4.43862 9.70711 4.62616C9.89464 4.81369 9.99999 5.06803 9.99999 5.33324V8.99982C9.99999 9.53024 10.2107 10.0389 10.5858 10.414C10.9608 10.7891 11.4695 10.9998 11.9999 10.9998C12.5304 10.9998 13.0391 10.7891 13.4141 10.414C13.7892 10.0389 13.9999 9.53024 13.9999 8.99982V0.333368C13.9999 0.244965 13.9648 0.160182 13.9023 0.0976715C13.8398 0.0351609 13.755 4.28071e-05 13.6666 4.28071e-05Z" fill="#324158"/>
<path d="M11.6663 10.9998H7.66639C7.57799 10.9998 7.49321 10.9647 7.4307 10.9022C7.36819 10.8396 7.33307 10.7549 7.33307 10.6665C7.33307 10.5781 7.36819 10.4933 7.4307 10.4308C7.49321 10.3682 7.57799 10.3331 7.66639 10.3331H11.6663C11.7547 10.3331 11.8395 10.3682 11.902 10.4308C11.9645 10.4933 11.9996 10.5781 11.9996 10.6665C11.9996 10.7549 11.9645 10.8396 11.902 10.9022C11.8395 10.9647 11.7547 10.9998 11.6663 10.9998Z" fill="#324158"/>
<path d="M8.99978 3.66663H2.33328C1.71467 3.66733 1.1216 3.91339 0.68418 4.35081C0.246759 4.78823 0.00070577 5.3813 0 5.9999V13.6664C0 13.7548 0.0351181 13.8396 0.0976287 13.9021C0.160139 13.9646 0.244922 13.9997 0.333325 13.9997C0.491142 13.9992 0.64712 13.9658 0.791333 13.9017C0.935546 13.8376 1.06484 13.7442 1.17097 13.6274C1.31597 13.494 1.3873 13.4331 1.55496 13.4331C1.72262 13.4331 1.79362 13.4927 1.93862 13.6274C2.04438 13.7446 2.17357 13.8383 2.31783 13.9025C2.4621 13.9666 2.61822 13.9997 2.7761 13.9997C2.93398 13.9997 3.0901 13.9666 3.23436 13.9025C3.37863 13.8383 3.50782 13.7446 3.61358 13.6274C3.75857 13.494 3.82991 13.4331 3.99757 13.4331C4.16523 13.4331 4.23623 13.4927 4.38156 13.6274C4.48747 13.7445 4.61676 13.8382 4.7611 13.9023C4.90544 13.9664 5.06161 13.9995 5.21954 13.9995C5.37747 13.9995 5.53364 13.9664 5.67798 13.9023C5.82231 13.8382 5.95161 13.7445 6.05752 13.6274C6.20318 13.4924 6.27451 13.4327 6.44284 13.4327C6.61117 13.4327 6.6825 13.4924 6.82817 13.6274C6.93448 13.7441 7.0639 13.8375 7.20821 13.9016C7.35252 13.9657 7.50857 13.9991 7.66648 13.9997C7.75488 13.9997 7.83966 13.9646 7.90217 13.9021C7.96468 13.8396 7.9998 13.7548 7.9998 13.6664V5.33325C7.9998 5.06804 8.10516 4.81369 8.29269 4.62616C8.48022 4.43863 8.73457 4.33328 8.99978 4.33328C9.08818 4.33328 9.17296 4.29816 9.23547 4.23565C9.29799 4.17314 9.3331 4.08835 9.3331 3.99995C9.3331 3.91155 9.29799 3.82677 9.23547 3.76425C9.17296 3.70174 9.08818 3.66663 8.99978 3.66663ZM3.9999 8.33318C4.29095 8.33231 4.57247 8.43682 4.79246 8.62738C5.01244 8.81795 5.15602 9.0817 5.19666 9.3699C5.23729 9.6581 5.17225 9.95127 5.01353 10.1952C4.85482 10.4392 4.61317 10.6175 4.33323 10.6971V10.9998C4.33323 11.0882 4.29811 11.173 4.2356 11.2355C4.17309 11.298 4.0883 11.3331 3.9999 11.3331C3.9115 11.3331 3.82672 11.298 3.7642 11.2355C3.70169 11.173 3.66658 11.0882 3.66658 10.9998V10.6971C3.41515 10.6254 3.19384 10.4739 3.03602 10.2655C2.8782 10.057 2.79242 9.80293 2.7916 9.54148C2.7916 9.45308 2.82672 9.36829 2.88923 9.30578C2.95174 9.24327 3.03652 9.20816 3.12492 9.20816C3.21333 9.20816 3.29811 9.24327 3.36062 9.30578C3.42313 9.36829 3.45825 9.45308 3.45825 9.54148C3.45825 9.64861 3.49002 9.75333 3.54953 9.84241C3.60905 9.93148 3.69365 10.0009 3.79262 10.0419C3.89159 10.0829 4.0005 10.0936 4.10557 10.0727C4.21064 10.0518 4.30716 10.0002 4.38291 9.92449C4.45866 9.84874 4.51025 9.75222 4.53115 9.64715C4.55205 9.54208 4.54132 9.43317 4.50032 9.3342C4.45933 9.23522 4.3899 9.15063 4.30083 9.09111C4.21175 9.03159 4.10703 8.99983 3.9999 8.99983C3.70885 9.00069 3.42733 8.89619 3.20734 8.70562C2.98736 8.51505 2.84378 8.2513 2.80315 7.9631C2.76251 7.67491 2.82756 7.38174 2.98627 7.13777C3.14498 6.89381 3.38664 6.71553 3.66658 6.63589V6.33323C3.66658 6.24482 3.70169 6.16004 3.7642 6.09753C3.82672 6.03502 3.9115 5.9999 3.9999 5.9999C4.0883 5.9999 4.17309 6.03502 4.2356 6.09753C4.29811 6.16004 4.33323 6.24482 4.33323 6.33323V6.63589C4.58465 6.70759 4.80596 6.85908 4.96378 7.06753C5.1216 7.27597 5.20739 7.53007 5.2082 7.79152C5.2082 7.87993 5.17309 7.96471 5.11058 8.02722C5.04807 8.08973 4.96328 8.12485 4.87488 8.12485C4.78648 8.12485 4.70169 8.08973 4.63918 8.02722C4.57667 7.96471 4.54155 7.87993 4.54155 7.79152C4.54155 7.68439 4.50979 7.57967 4.45027 7.4906C4.39075 7.40152 4.30616 7.3321 4.20718 7.2911C4.10821 7.2501 3.9993 7.23938 3.89423 7.26028C3.78916 7.28118 3.69265 7.33277 3.61689 7.40852C3.54114 7.48427 3.48956 7.58078 3.46866 7.68585C3.44776 7.79092 3.45848 7.89983 3.49948 7.99881C3.54048 8.09778 3.6099 8.18237 3.69898 8.24189C3.78805 8.30141 3.89277 8.33318 3.9999 8.33318Z" fill="#324158"/>
</g>
</svg>
