<svg width="19" height="19" viewBox="0 0 19 19" fill="none" xmlns="http://www.w3.org/2000/svg">
<g opacity="0.7">
<path d="M19 8.31652C19 8.64661 18.8631 8.94449 18.6538 9.16186L16.2788 11.5369C16.0614 11.7542 15.7636 11.8831 15.4415 11.8831C14.7894 11.8831 14.2581 11.3517 14.2581 10.6996C14.2581 10.3695 14.3869 10.0716 14.6042 9.85424L14.9504 9.50805H11.8831C11.2309 9.50805 10.6996 8.97669 10.6996 8.31652C10.6996 7.65636 11.2309 7.125 11.8831 7.125H14.9504L14.6042 6.77881C14.3869 6.56144 14.2581 6.26356 14.2581 5.93347C14.2581 5.28136 14.7894 4.74195 15.4415 4.74195C15.7716 4.74195 16.0695 4.87881 16.2788 5.08814L18.6538 7.46313C18.8631 7.69661 19 7.99449 19 8.31652ZM15.4335 2.38305H13.0585H10.6835H5.47458L7.73686 3.74364L7.72881 3.75975C8.075 3.96907 8.31653 4.33136 8.31653 4.75805V14.2581H9.5H13.0585H15.4335C16.0856 14.2581 16.625 14.7894 16.625 15.4415C16.625 16.1017 16.0936 16.6331 15.4335 16.6331H9.5H8.31653V17.8246C8.31653 18.4767 7.78517 19.0081 7.125 19.0081C6.89958 19.0081 6.70636 18.9275 6.52119 18.8229L6.51314 18.839L0.57161 15.2725L0.579661 15.2564C0.418644 15.1597 0.289831 15.0309 0.19322 14.878C0.177119 14.8538 0.161017 14.8377 0.152966 14.8136C0.0644068 14.6445 0 14.4593 0 14.2581V1.19153C0 0.700424 0.297881 0.28178 0.724576 0.0966102C0.869492 0.0402543 1.02246 0 1.18347 0H10.6835H15.4335C16.0856 0 16.625 0.531356 16.625 1.19153C16.625 1.85169 16.0936 2.38305 15.4335 2.38305Z" fill="#324158"/>
</g>
</svg>
