<svg width="26" height="28" viewBox="0 0 26 28" fill="none" xmlns="http://www.w3.org/2000/svg">
<path fill-rule="evenodd" clip-rule="evenodd" d="M12.9999 4.66663C8.21592 4.66663 4.33325 8.84796 4.33325 14C4.33325 19.152 8.21592 23.3333 12.9999 23.3333C17.7839 23.3333 21.6666 19.152 21.6666 14C21.6666 8.84796 17.7839 4.66663 12.9999 4.66663ZM12.9999 7.46663C14.4386 7.46663 15.5999 8.71729 15.5999 10.2666C15.5999 11.816 14.4386 13.0666 12.9999 13.0666C11.5613 13.0666 10.3999 11.816 10.3999 10.2666C10.3999 8.71729 11.5613 7.46663 12.9999 7.46663ZM12.9999 20.72C10.8333 20.72 8.91792 19.5253 7.79992 17.7146C7.82592 15.8573 11.2666 14.84 12.9999 14.84C14.7246 14.84 18.1739 15.8573 18.1999 17.7146C17.0819 19.5253 15.1666 20.72 12.9999 20.72Z" fill="#324158"/>
</svg>
