<svg width="16" height="16" viewBox="0 0 16 16" fill="none" xmlns="http://www.w3.org/2000/svg">
<path opacity="0.7" fill-rule="evenodd" clip-rule="evenodd" d="M8.00033 0.666626C3.95233 0.666626 0.666992 3.95196 0.666992 7.99996C0.666992 12.048 3.95233 15.3333 8.00033 15.3333C12.0483 15.3333 15.3337 12.048 15.3337 7.99996C15.3337 3.95196 12.0483 0.666626 8.00033 0.666626ZM8.00033 2.86663C9.21766 2.86663 10.2003 3.84929 10.2003 5.06663C10.2003 6.28396 9.21766 7.26663 8.00033 7.26663C6.78299 7.26663 5.80033 6.28396 5.80033 5.06663C5.80033 3.84929 6.78299 2.86663 8.00033 2.86663ZM8.00033 13.28C6.16699 13.28 4.54633 12.3413 3.60033 10.9186C3.62233 9.45929 6.53366 8.65996 8.00033 8.65996C9.45966 8.65996 12.3783 9.45929 12.4003 10.9186C11.4543 12.3413 9.83366 13.28 8.00033 13.28Z" fill="#324158"/>
</svg>
