<svg width="16" height="16" viewBox="0 0 16 16" fill="none" xmlns="http://www.w3.org/2000/svg">
<path fill-rule="evenodd" clip-rule="evenodd" d="M8.00008 0.666626C3.95208 0.666626 0.666748 3.95196 0.666748 7.99996C0.666748 12.048 3.95208 15.3333 8.00008 15.3333C12.0481 15.3333 15.3334 12.048 15.3334 7.99996C15.3334 3.95196 12.0481 0.666626 8.00008 0.666626ZM8.00008 2.86663C9.21741 2.86663 10.2001 3.84929 10.2001 5.06663C10.2001 6.28396 9.21741 7.26663 8.00008 7.26663C6.78275 7.26663 5.80008 6.28396 5.80008 5.06663C5.80008 3.84929 6.78275 2.86663 8.00008 2.86663ZM8.00008 13.28C6.16675 13.28 4.54608 12.3413 3.60008 10.9186C3.62208 9.45929 6.53341 8.65996 8.00008 8.65996C9.45941 8.65996 12.3781 9.45929 12.4001 10.9186C11.4541 12.3413 9.83341 13.28 8.00008 13.28Z" fill="#324158"/>
</svg>
