<svg width="22" height="22" viewBox="0 0 22 22" fill="none" xmlns="http://www.w3.org/2000/svg">
<path fill-rule="evenodd" clip-rule="evenodd" d="M11.0001 3.66663C6.95208 3.66663 3.66675 6.95196 3.66675 11C3.66675 15.048 6.95208 18.3333 11.0001 18.3333C15.0481 18.3333 18.3334 15.048 18.3334 11C18.3334 6.95196 15.0481 3.66663 11.0001 3.66663ZM11.0001 5.86663C12.2174 5.86663 13.2001 6.84929 13.2001 8.06663C13.2001 9.28396 12.2174 10.2666 11.0001 10.2666C9.78275 10.2666 8.80008 9.28396 8.80008 8.06663C8.80008 6.84929 9.78275 5.86663 11.0001 5.86663ZM11.0001 16.28C9.16675 16.28 7.54608 15.3413 6.60008 13.9186C6.62208 12.4593 9.53341 11.66 11.0001 11.66C12.4594 11.66 15.3781 12.4593 15.4001 13.9186C14.4541 15.3413 12.8334 16.28 11.0001 16.28Z" fill="#324158"/>
</svg>
