<svg width="16" height="16" viewBox="0 0 16 16" fill="none" xmlns="http://www.w3.org/2000/svg">
<path opacity="0.7" fill-rule="evenodd" clip-rule="evenodd" d="M8.00001 0.666626C3.95201 0.666626 0.666672 3.95196 0.666672 7.99996C0.666672 12.048 3.95201 15.3333 8.00001 15.3333C12.048 15.3333 15.3333 12.048 15.3333 7.99996C15.3333 3.95196 12.048 0.666626 8.00001 0.666626ZM8 2.86663C9.21734 2.86663 10.2 3.84929 10.2 5.06663C10.2 6.28396 9.21734 7.26663 8 7.26663C6.78267 7.26663 5.8 6.28396 5.8 5.06663C5.8 3.84929 6.78267 2.86663 8 2.86663ZM8 13.28C6.16667 13.28 4.546 12.3413 3.6 10.9186C3.622 9.45929 6.53334 8.65996 8 8.65996C9.45934 8.65996 12.378 9.45929 12.4 10.9186C11.454 12.3413 9.83334 13.28 8 13.28Z" fill="#324158"/>
</svg>
