<svg width="29" height="29" viewBox="0 0 29 29" fill="none" xmlns="http://www.w3.org/2000/svg">
<g opacity="0.5">
<path d="M23.0269 2.9684H5.00585C4.74032 2.9684 4.48567 2.86292 4.29791 2.67517C4.11016 2.48741 4.00468 2.23276 4.00468 1.96723C4.00468 1.70171 4.11016 1.44706 4.29791 1.2593C4.48567 1.07154 4.74032 0.966064 5.00585 0.966064H23.0269C23.2924 0.966064 23.5471 1.07154 23.7348 1.2593C23.9226 1.44706 24.0281 1.70171 24.0281 1.96723C24.0281 2.23276 23.9226 2.48741 23.7348 2.67517C23.5471 2.86292 23.2924 2.9684 23.0269 2.9684ZM26.0304 5.97191C26.0304 5.70638 25.9249 5.45173 25.7372 5.26398C25.5494 5.07622 25.2948 4.97074 25.0292 4.97074H3.00351C2.73798 4.97074 2.48333 5.07622 2.29557 5.26398C2.10782 5.45173 2.00234 5.70638 2.00234 5.97191C2.00234 6.23744 2.10782 6.49209 2.29557 6.67984C2.48333 6.8676 2.73798 6.97308 3.00351 6.97308H25.0292C25.2948 6.97308 25.5494 6.8676 25.7372 6.67984C25.9249 6.49209 26.0304 6.23744 26.0304 5.97191ZM11.0129 21.3699L15.7784 18.9871L11.0129 16.6043V21.3699ZM28.0327 11.9789V25.9953C28.0327 26.7919 27.7163 27.5558 27.153 28.1191C26.5898 28.6824 25.8258 28.9988 25.0292 28.9988H3.00351C2.20693 28.9988 1.44297 28.6824 0.879707 28.1191C0.31644 27.5558 0 26.7919 0 25.9953V11.9789C0 11.1823 0.31644 10.4184 0.879707 9.85513C1.44297 9.29186 2.20693 8.97542 3.00351 8.97542H25.0292C25.8258 8.97542 26.5898 9.29186 27.153 9.85513C27.7163 10.4184 28.0327 11.1823 28.0327 11.9789ZM19.0222 18.9871C19.0217 18.8022 18.9699 18.6211 18.8727 18.4638C18.7755 18.3066 18.6367 18.1793 18.4716 18.0961L10.4622 14.0914C10.3098 14.0146 10.1403 13.978 9.96979 13.9852C9.79927 13.9923 9.63341 14.0429 9.48796 14.1322C9.34251 14.2215 9.2223 14.3465 9.13874 14.4953C9.05517 14.6441 9.01104 14.8118 9.01052 14.9824V22.9918C9.01018 23.1619 9.05321 23.3294 9.13554 23.4783C9.21787 23.6271 9.33679 23.7526 9.48107 23.8428C9.6404 23.9415 9.82425 23.9936 10.0117 23.993C10.1684 23.992 10.3227 23.9543 10.4622 23.8828L18.4716 19.8782C18.6367 19.795 18.7755 19.6677 18.8727 19.5104C18.9699 19.3531 19.0217 19.172 19.0222 18.9871Z" fill="#324158"/>
</g>
</svg>
