<svg width="16" height="16" viewBox="0 0 16 16" fill="none" xmlns="http://www.w3.org/2000/svg">
<path opacity="0.7" fill-rule="evenodd" clip-rule="evenodd" d="M13.1536 3.04563C12.4339 4.30102 13.0256 5.32452 14.4729 5.32452C15.3125 5.32452 15.9922 6.01219 16.0002 6.84378V8.25109C16.0002 9.09068 15.3125 9.77035 14.4809 9.77035C13.0336 9.77035 12.4419 10.7938 13.1696 12.0492C13.5854 12.7689 13.3375 13.7044 12.6098 14.1202L11.2265 14.9118C10.5948 15.2877 9.77923 15.0638 9.40341 14.4321L9.31545 14.2801C8.58781 13.0248 7.40438 13.0248 6.68474 14.2801L6.59678 14.4321C6.22096 15.0638 5.40536 15.2877 4.77367 14.9118L3.39034 14.1202C2.6627 13.7044 2.41482 12.7769 2.83062 12.0492C3.55826 10.7938 2.96655 9.77035 1.51926 9.77035C0.679668 9.77035 0 9.08269 0 8.25109V6.84378C0 6.00419 0.687664 5.32452 1.51926 5.32452C2.96655 5.32452 3.55826 4.30102 2.83062 3.05363C2.41482 2.32599 2.6627 1.39044 3.39034 0.974645L4.77367 0.183032C5.40536 -0.192785 6.22096 0.0311059 6.58079 0.662797L6.66874 0.814723C7.39639 2.07011 8.57981 2.07011 9.29946 0.814723L9.38742 0.662797C9.76323 0.0311059 10.5788 -0.192785 11.2105 0.183032L12.5939 0.974645C13.3215 1.39044 13.5694 2.31799 13.1536 3.04563ZM8.06399 10.5057V11.1582H8.5357V10.5062C8.92751 10.4873 9.26883 10.4198 9.55966 10.3036C9.90865 10.1649 10.1761 9.96534 10.3621 9.70485C10.5481 9.44435 10.6421 9.13231 10.644 8.76874C10.6421 8.53823 10.6018 8.3302 10.5232 8.14467C10.4446 7.95914 10.3286 7.79515 10.1752 7.65272C10.0237 7.51029 9.83578 7.38754 9.61143 7.28447C9.389 7.18139 9.13205 7.09893 8.84059 7.03709L8.5357 6.96936V5.7681C8.70331 5.79251 8.83945 5.84537 8.94413 5.92669C9.09562 6.04101 9.18095 6.20124 9.20012 6.40739H10.5635C10.5597 6.04944 10.4647 5.7346 10.2787 5.46286C10.0927 5.19111 9.83099 4.98028 9.4935 4.83035C9.21565 4.70466 8.89638 4.631 8.5357 4.60939V3.96171H8.06399V4.61026C7.71407 4.63277 7.39672 4.70519 7.11193 4.82754C6.76294 4.97747 6.4897 5.18643 6.29219 5.45442C6.09468 5.72242 5.99689 6.03445 5.99881 6.39053C5.99689 6.82719 6.14262 7.17389 6.436 7.43064C6.72939 7.68552 7.13111 7.87012 7.64117 7.98444L8.06399 8.08099V9.34884C7.94382 9.33399 7.83356 9.30649 7.73321 9.26631C7.57597 9.20259 7.45229 9.10889 7.36217 8.9852C7.27205 8.86151 7.22123 8.7069 7.20973 8.52136H5.84636C5.85212 8.97114 5.95662 9.34315 6.15988 9.63738C6.36314 9.93161 6.64789 10.1509 7.01414 10.2952C7.31997 10.4157 7.66992 10.4859 8.06399 10.5057ZM8.5357 9.34528C8.62342 9.33268 8.703 9.31292 8.77443 9.28599C8.91057 9.23539 9.01508 9.16511 9.08795 9.07515C9.16081 8.9852 9.1982 8.88212 9.20012 8.76593C9.1982 8.65723 9.16369 8.56447 9.09658 8.48763C9.02946 8.40892 8.92592 8.34145 8.78594 8.28523C8.71317 8.25461 8.62976 8.22529 8.5357 8.19728V9.34528ZM8.06399 6.85624V5.76786C7.98151 5.77952 7.90768 5.7978 7.84251 5.82268C7.71979 5.86953 7.62775 5.93419 7.56639 6.01665C7.50503 6.09723 7.47339 6.19 7.47147 6.29495C7.46763 6.38116 7.48489 6.45706 7.52324 6.52265C7.56351 6.58824 7.62104 6.64634 7.69582 6.69694C7.77252 6.74567 7.86456 6.78877 7.97194 6.82625C8.0016 6.8366 8.03228 6.8466 8.06399 6.85624Z" fill="#324158"/>
</svg>
