<svg width="16" height="16" viewBox="0 0 16 16" fill="none" xmlns="http://www.w3.org/2000/svg">
<path fill-rule="evenodd" clip-rule="evenodd" d="M13.1536 3.04563C12.4339 4.30102 13.0256 5.32452 14.4729 5.32452C15.3125 5.32452 15.9922 6.01219 16.0002 6.84378V8.25109C16.0002 9.09068 15.3125 9.77035 14.4809 9.77035C13.0336 9.77035 12.4419 10.7938 13.1696 12.0492C13.5854 12.7689 13.3375 13.7044 12.6098 14.1202L11.2265 14.9118C10.5948 15.2877 9.77923 15.0638 9.40341 14.4321L9.31545 14.2801C8.58781 13.0248 7.40438 13.0248 6.68474 14.2801L6.59678 14.4321C6.22096 15.0638 5.40536 15.2877 4.77367 14.9118L3.39034 14.1202C2.6627 13.7044 2.41482 12.7769 2.83062 12.0492C3.55826 10.7938 2.96655 9.77035 1.51926 9.77035C0.679668 9.77035 0 9.08269 0 8.25109V6.84378C0 6.00419 0.687664 5.32452 1.51926 5.32452C2.96655 5.32452 3.55826 4.30102 2.83062 3.05363C2.41482 2.32599 2.6627 1.39044 3.39034 0.974645L4.77367 0.183032C5.40536 -0.192785 6.22096 0.0311059 6.58079 0.662797L6.66874 0.814723C7.39639 2.07011 8.57981 2.07011 9.29946 0.814723L9.38742 0.662797C9.76323 0.0311059 10.5788 -0.192785 11.2105 0.183032L12.5939 0.974645C13.3215 1.39044 13.5694 2.31799 13.1536 3.04563ZM8.06333 10.5057V11.1582H8.53504V10.5062C8.92685 10.4873 9.26817 10.4198 9.559 10.3036C9.90799 10.1649 10.1755 9.96533 10.3615 9.70483C10.5475 9.44434 10.6414 9.1323 10.6434 8.76873C10.6414 8.53822 10.6012 8.33019 10.5226 8.14466C10.4439 7.95912 10.3279 7.79514 10.1745 7.65271C10.023 7.51028 9.83512 7.38753 9.61077 7.28445C9.38834 7.18138 9.13139 7.09892 8.83992 7.03707L8.53504 6.96935V5.76809C8.70265 5.79249 8.83879 5.84536 8.94347 5.92668C9.09496 6.041 9.18029 6.20123 9.19946 6.40738H10.5628C10.559 6.04943 10.4641 5.73458 10.2781 5.46284C10.0921 5.1911 9.83033 4.98027 9.49284 4.83034C9.21499 4.70464 8.89572 4.63099 8.53504 4.60937V3.9617H8.06333V4.61025C7.71341 4.63276 7.39606 4.70518 7.11127 4.82753C6.76228 4.97745 6.48903 5.18642 6.29153 5.45441C6.09402 5.7224 5.99623 6.03444 5.99815 6.39051C5.99623 6.82718 6.14196 7.17388 6.43534 7.43063C6.72873 7.68551 7.13045 7.8701 7.64051 7.98442L8.06333 8.08097V9.34883C7.94316 9.33398 7.8329 9.30647 7.73255 9.2663C7.57531 9.20258 7.45163 9.10887 7.36151 8.98518C7.27139 8.8615 7.22057 8.70688 7.20907 8.52135H5.8457C5.85146 8.97113 5.95596 9.34313 6.15922 9.63737C6.36248 9.9316 6.64723 10.1509 7.01348 10.2952C7.31931 10.4157 7.66925 10.4859 8.06333 10.5057ZM8.53504 9.34526C8.62276 9.33267 8.70234 9.3129 8.77377 9.28598C8.90991 9.23538 9.01442 9.1651 9.08729 9.07514C9.16015 8.98518 9.19754 8.88211 9.19946 8.76592C9.19754 8.65722 9.16303 8.56445 9.09591 8.48762C9.0288 8.4089 8.92525 8.34144 8.78528 8.28521C8.71251 8.2546 8.6291 8.22528 8.53504 8.19726V9.34526ZM8.06333 6.85622V5.76784C7.98085 5.77951 7.90702 5.79779 7.84185 5.82267C7.71913 5.86952 7.62709 5.93418 7.56573 6.01663C7.50437 6.09722 7.47273 6.18999 7.47081 6.29494C7.46697 6.38114 7.48423 6.45704 7.52258 6.52264C7.56285 6.58823 7.62038 6.64633 7.69516 6.69693C7.77186 6.74565 7.8639 6.78876 7.97128 6.82624C8.00094 6.83659 8.03162 6.84659 8.06333 6.85622Z" fill="#324158"/>
</svg>
