<svg width="13" height="13" viewBox="0 0 13 13" fill="none" xmlns="http://www.w3.org/2000/svg">
<path d="M0.722222 7.22222H5.05556C5.45278 7.22222 5.77778 6.89722 5.77778 6.5V0.722222C5.77778 0.325 5.45278 0 5.05556 0H0.722222C0.325 0 0 0.325 0 0.722222V6.5C0 6.89722 0.325 7.22222 0.722222 7.22222ZM0.722222 13H5.05556C5.45278 13 5.77778 12.675 5.77778 12.2778V9.38889C5.77778 8.99167 5.45278 8.66667 5.05556 8.66667H0.722222C0.325 8.66667 0 8.99167 0 9.38889V12.2778C0 12.675 0.325 13 0.722222 13ZM7.94444 13H12.2778C12.675 13 13 12.675 13 12.2778V6.5C13 6.10278 12.675 5.77778 12.2778 5.77778H7.94444C7.54722 5.77778 7.22222 6.10278 7.22222 6.5V12.2778C7.22222 12.675 7.54722 13 7.94444 13ZM7.22222 0.722222V3.61111C7.22222 4.00833 7.54722 4.33333 7.94444 4.33333H12.2778C12.675 4.33333 13 4.00833 13 3.61111V0.722222C13 0.325 12.675 0 12.2778 0H7.94444C7.54722 0 7.22222 0.325 7.22222 0.722222Z" fill="#324158"/>
</svg>
