<svg width="28" height="29" viewBox="0 0 28 29" fill="none" xmlns="http://www.w3.org/2000/svg">
<path opacity="0.5" d="M27.2479 12.2126C27.2472 12.2119 27.2466 12.2113 27.2459 12.2107L15.823 0.789307C15.3361 0.302246 14.6888 0.0339355 14.0002 0.0339355C13.3116 0.0339355 12.6643 0.302032 12.1771 0.789093L0.760177 12.2047C0.756331 12.2085 0.752486 12.2126 0.74864 12.2164C-0.251218 13.222 -0.249508 14.8534 0.753554 15.8564C1.21182 16.3148 1.81708 16.5803 2.46421 16.6081C2.49049 16.6107 2.51698 16.6119 2.54368 16.6119H2.99896V25.0174C2.99896 26.6806 4.3524 28.0339 6.01627 28.0339H10.4853C10.9382 28.0339 11.3057 27.6667 11.3057 27.2136V20.6238C11.3057 19.8648 11.9231 19.2474 12.6822 19.2474H15.3181C16.0772 19.2474 16.6947 19.8648 16.6947 20.6238V27.2136C16.6947 27.6667 17.0619 28.0339 17.5151 28.0339H21.9841C23.6479 28.0339 25.0014 26.6806 25.0014 25.0174V16.6119H25.4235C26.1119 16.6119 26.7593 16.3438 27.2466 15.8568C28.2507 14.8521 28.2511 13.2179 27.2479 12.2126Z" fill="#324158"/>
</svg>
